<?xml version="1.0" standalone="no"?>
<!DOCTYPE svg PUBLIC "-//W3C//DTD SVG 20010904//EN" "http://www.w3.org/TR/2001/REC-SVG-20010904/DTD/svg10.dtd">
<svg version="1.0" xmlns="http://www.w3.org/2000/svg" width="416.000000pt" height="166.000000pt" viewBox="0 0 416.000000 166.000000" preserveAspectRatio="xMidYMid meet">
    <g data-bx-workspace="master" xmlns="http://www.w3.org/2000/svg" xmlns:bx="https://boxy-svg.com" version="1.0" width="416.000000pt" height="166.000000pt" viewBox="0 0 416.000000 166.000000" preserveAspectRatio="xMidYMid meet">
        <defs></defs>
        <g transform="translate(0.000000,166.000000) scale(0.100000,-0.100000)" stroke="none" fill="#fff">
            <path d="M1546 1429 l-26 -20 0 -528 0 -528 24 -22 c24 -22 27 -23 248 -19
206 4 228 6 283 28 84 33 183 132 214 215 97 258 -54 535 -305 561 -98 10
-215 -29 -291 -99 l-23 -20 0 206 0 206 -26 20 c-15 12 -37 21 -49 21 -12 0
-34 -9 -49 -21z m456 -467 c58 -21 98 -56 135 -119 24 -42 28 -58 28 -128 0
-89 -19 -138 -76 -194 -46 -46 -86 -63 -159 -68 -57 -4 -72 -1 -120 24 -159
84 -191 301 -63 428 70 70 162 91 255 57z"></path>
            <path d="M3561 1341 c-11 -11 -23 -35 -26 -54 -4 -18 -5 -195 -3 -393 3 -270
8 -368 18 -394 24 -64 70 -120 123 -150 44 -25 63 -30 120 -30 59 0 71 3 92
25 54 53 13 125 -72 125 -28 0 -58 7 -71 16 -47 32 -52 60 -52 269 l0 195 70
0 c62 0 74 3 95 25 30 29 32 58 5 85 -16 16 -33 20 -95 20 l-75 0 0 114 c0 99
-3 117 -21 140 -25 32 -79 36 -108 7z"></path>
            <path d="M2759 1101 c-123 -33 -209 -102 -271 -215 -30 -56 -33 -68 -33 -151
0 -82 3 -96 34 -158 52 -104 150 -182 267 -213 91 -24 190 -28 263 -11 l63 15
47 -28 c51 -31 108 -45 130 -31 12 8 12 17 -3 63 -19 61 -15 78 27 127 16 19
41 60 56 90 21 47 25 70 25 146 0 77 -4 98 -27 145 -30 63 -84 123 -152 169
-98 66 -288 89 -426 52z m281 -46 c83 -31 129 -57 176 -102 63 -62 97 -130
102 -209 5 -72 -13 -120 -77 -204 -37 -49 -41 -60 -41 -112 0 -51 -2 -58 -19
-58 -11 0 -23 5 -26 10 -3 6 -20 17 -37 26 -28 14 -36 14 -100 -1 -92 -23
-182 -16 -273 20 -87 34 -145 81 -193 153 -37 55 -37 57 -37 156 0 92 3 105
26 141 106 161 329 242 499 180z"></path>
            <path d="M2785 641 c-9 -30 20 -88 57 -111 37 -22 79 -25 126 -9 56 19 96 147
44 137 -9 -2 -18 -12 -20 -23 -6 -32 -53 -75 -82 -75 -31 0 -67 35 -72 70 -4
32 -43 41 -53 11z"></path>
            <path d="M283 1102 c-20 -13 -30 -55 -21 -89 5 -18 10 -34 11 -35 1 -1 94 -4
205 -7 l204 -6 -206 -273 c-171 -226 -206 -279 -206 -306 0 -65 4 -66 318 -66
314 0 312 0 312 69 0 67 -10 70 -227 73 l-192 3 205 273 c217 289 227 309 184
352 -19 19 -33 20 -297 20 -153 0 -283 -4 -290 -8z"></path>
            <path d="M1120 1090 c-19 -19 -20 -33 -20 -375 0 -342 1 -356 20 -375 12 -12
33 -20 55 -20 22 0 43 8 55 20 19 19 20 33 20 375 0 342 -1 356 -20 375 -12
12 -33 20 -55 20 -22 0 -43 -8 -55 -20z"></path>
        
        <rect xmlns="http://www.w3.org/2000/svg" x="2600.579" y="750.027" width="200.966" height="45.143" ry="20" rx="20"/>
        <rect xmlns="http://www.w3.org/2000/svg" x="3000.579" y="750.027" width="200.966" height="45.143" rx="20" ry="20"/>
      </g>
    </g>
</svg>