<?xml version="1.0" standalone="no"?>
<!DOCTYPE svg PUBLIC "-//W3C//DTD SVG 20010904//EN"
 "http://www.w3.org/TR/2001/REC-SVG-20010904/DTD/svg10.dtd">
<svg version="1.0" xmlns="http://www.w3.org/2000/svg" width="980.000000pt" height="521.000000pt" viewBox="0 0 980.000000 521.000000" preserveAspectRatio="xMidYMid meet">
    <metadata>
        Created by potrace 1.16, written by Peter Selinger 2001-2019
    </metadata>
    <g transform="translate(0.000000,610.000000) scale(0.1211, -0.121111)" fill="#fff" stroke="none">
        <path d="M4408 3079 c-123 -17 -207 -91 -224 -198 -12 -76 43 -120 206 -166
52 -15 112 -36 132 -48 37 -20 62 -64 52 -90 -2 -7 4 -22 16 -32 37 -34 20
-84 -37 -106 -13 -5 -51 -9 -83 -9 -52 0 -64 4 -95 31 -19 17 -35 37 -35 45 0
11 -20 14 -90 14 -56 0 -90 -4 -90 -10 0 -23 32 -70 63 -94 90 -69 213 -87
331 -50 78 25 148 87 170 151 44 128 5 169 -222 234 -125 36 -168 64 -158 103
4 18 0 25 -18 34 -13 6 -27 23 -30 38 -6 22 -2 33 19 53 23 23 33 26 98 26 78
0 115 -17 136 -62 10 -21 17 -23 91 -23 78 0 80 1 80 24 0 36 -81 103 -144
120 -76 21 -105 24 -168 15z" />
        <path d="M5885 3055 c-83 -34 -132 -72 -187 -143 -56 -74 -80 -149 -80 -252
-1 -90 13 -122 83 -192 183 -183 500 -150 636 66 57 90 81 241 54 333 -22 76
-131 167 -235 197 -83 25 -199 21 -271 -9z m215 -70 c76 -38 106 -79 145 -198
35 -106 37 -127 21 -181 -41 -137 -169 -210 -301 -171 -73 21 -127 75 -180
180 -35 71 -40 88 -40 151 0 65 3 76 34 121 35 51 81 89 135 110 41 17 143 10
186 -12z" />
        <path d="M5900 2969 c-25 -11 -56 -30 -68 -42 -57 -53 -85 -161 -62 -233 l13
-39 12 50 c15 67 37 106 79 143 34 30 117 62 160 62 37 0 93 -20 130 -45 20
-14 39 -25 42 -25 10 0 -26 57 -53 82 -69 65 -171 84 -253 47z" />
        <path d="M1430 3045 l0 -25 140 0 140 0 -25 -50 -25 -50 40 0 40 0 -140 -280
-140 -280 235 0 235 0 0 25 0 25 -125 0 c-69 0 -125 3 -125 8 1 4 7 18 15 32
24 42 19 50 -30 50 l-45 0 140 280 c77 154 140 282 140 285 0 3 -106 5 -235 5
l-235 0 0 -25z" />
        <path d="M1795 2800 c-74 -148 -135 -272 -135 -275 0 -3 16 -5 35 -5 l35 0
135 270 c74 148 135 272 135 275 0 3 -16 5 -35 5 l-35 0 -135 -270z" />
        <path d="M2150 2715 l0 -355 60 0 60 0 0 355 0 355 -60 0 -60 0 0 -355z" />
        <path d="M2290 2705 l0 -365 -70 0 -70 0 0 -40 0 -40 85 0 85 0 0 405 c0 353
-2 405 -15 405 -13 0 -15 -47 -15 -365z" />
        <path d="M2510 2714 l0 -355 208 3 209 3 49 30 c66 42 107 120 107 205 0 49
-4 65 -22 84 -13 14 -20 30 -16 36 4 7 -7 26 -26 46 l-32 33 16 38 c15 36 22
81 18 130 0 12 -13 34 -28 47 -50 47 -100 56 -300 56 l-183 0 0 -356z m342
275 c10 -14 20 -36 22 -50 1 -13 10 -38 19 -56 22 -42 21 -65 -4 -97 -20 -25
-24 -26 -120 -26 l-99 0 0 39 c0 33 -4 40 -22 43 -22 3 -23 8 -26 91 l-3 88
107 -3 c101 -3 108 -4 126 -29z m28 -297 c27 -13 38 -27 48 -62 8 -25 20 -59
28 -77 18 -40 18 -57 -1 -94 -22 -41 -49 -49 -176 -49 l-109 0 0 45 c0 41 -2
45 -25 45 -25 0 -25 0 -25 98 0 54 3 102 7 105 3 4 54 7 112 7 81 0 114 -4
141 -18z" />
        <path d="M2640 2930 c0 -56 3 -70 15 -70 10 0 15 10 15 30 l0 29 93 3 c86 3
92 4 89 23 -8 45 -30 55 -124 55 l-88 0 0 -70z" />
        <path d="M2640 2600 c0 -63 3 -80 14 -80 10 0 16 14 18 43 l3 42 121 0 122 0
-10 25 c-18 48 -24 50 -149 50 l-119 0 0 -80z" />
        <path d="M3512 2777 c-89 -161 -178 -320 -197 -355 l-35 -63 56 3 57 3 121
217 c67 120 123 218 126 218 3 0 59 -98 125 -218 l121 -217 88 -3 c76 -2 88
-1 83 12 -4 9 -91 169 -195 355 l-188 340 -162 -292z" />
        <path d="M4870 3045 l0 -25 100 0 100 0 0 -50 c0 -43 3 -50 20 -50 20 0 20 -7
20 -280 l0 -280 60 0 60 0 0 330 0 330 120 0 120 0 0 25 0 25 -300 0 -300 0 0
-25z" />
        <path d="M5490 3035 l0 -35 -120 0 -120 0 0 -330 0 -330 -70 0 -70 0 0 -40 0
-40 85 0 85 0 0 330 0 330 120 0 120 0 0 75 c0 60 -3 75 -15 75 -10 0 -15 -11
-15 -35z" />
        <path d="M6600 2715 l0 -355 65 0 65 0 0 135 0 135 68 0 67 -1 105 -134 105
-134 78 -1 c42 0 77 2 77 4 0 2 -31 43 -70 91 -38 48 -67 91 -64 96 3 5 -10
27 -28 50 -27 33 -30 42 -18 49 8 6 20 10 26 10 20 0 101 79 118 114 45 95 38
183 -18 232 -64 55 -112 64 -357 64 l-219 0 0 -355z m398 291 c29 -15 62 -64
62 -91 0 -11 10 -38 21 -61 20 -37 21 -44 8 -84 -10 -30 -25 -52 -48 -67 -30
-21 -46 -23 -147 -23 l-114 0 0 45 c0 41 -2 45 -25 45 l-25 0 0 125 0 125 123
0 c80 -1 130 -5 145 -14z" />
        <path d="M6750 2895 c0 -87 3 -105 15 -105 12 0 15 14 15 66 l0 66 130 -4
c145 -3 153 1 101 53 -29 29 -31 29 -145 29 l-116 0 0 -105z" />
        <path d="M7450 2715 l0 -355 255 0 255 0 0 25 0 25 -165 0 -165 0 0 45 c0 41
-2 45 -25 45 -25 0 -25 0 -25 95 l0 95 160 0 160 0 0 25 0 25 -135 0 -135 0 0
45 c0 41 -2 45 -25 45 -25 0 -25 0 -25 95 l0 95 190 0 190 0 0 25 0 25 -255 0
-255 0 0 -355z" />
        <path d="M7980 3035 l0 -35 -190 0 -190 0 0 -75 c0 -60 3 -75 15 -75 10 0 15
11 15 35 l0 35 190 0 190 0 0 75 c0 60 -3 75 -15 75 -10 0 -15 -11 -15 -35z" />
        <path d="M1430 2960 l0 -40 103 0 103 0 17 35 c9 20 17 38 17 40 0 3 -54 5
-120 5 l-120 0 0 -40z" />
        <path d="M4348 2979 c-29 -11 -41 -31 -32 -54 11 -29 39 -35 98 -23 73 16 131
-2 161 -49 20 -32 20 -32 108 -33 63 0 87 3 87 13 0 25 -23 92 -27 80 -3 -9
-33 -13 -102 -13 l-97 0 -11 30 c-19 51 -112 75 -185 49z" />
        <path d="M7246 2875 c-18 -80 -28 -105 -57 -144 -16 -23 -50 -55 -74 -69 -25
-15 -44 -29 -44 -32 0 -3 12 -20 28 -37 l27 -33 37 28 c42 31 78 81 95 131 13
37 14 122 2 161 l-7 25 -7 -30z" />
        <path d="M6424 2786 c13 -101 -41 -241 -127 -329 -160 -165 -428 -173 -595
-19 -23 21 -42 37 -42 35 0 -3 14 -24 30 -48 120 -174 368 -227 556 -119 126
73 205 214 203 362 0 37 -7 85 -15 107 -11 32 -13 34 -10 11z" />
        <path d="M4200 2763 c0 -17 55 -75 93 -97 44 -26 254 -92 263 -83 3 3 3 15 -1
26 -8 27 -57 52 -170 86 -49 14 -110 38 -134 51 -47 26 -51 27 -51 17z" />
        <path d="M3519 2550 l-114 -209 -67 -1 c-64 0 -67 -1 -87 -34 -12 -18 -21 -36
-21 -40 0 -3 47 -6 104 -6 l104 0 120 217 c116 210 120 218 106 244 -8 15 -18
30 -22 33 -5 3 -60 -89 -123 -204z" />
        <path d="M7920 2705 l0 -35 -160 0 -160 0 0 -75 c0 -60 3 -75 15 -75 10 0 15
11 15 35 l0 35 155 0 155 0 0 75 c0 43 -4 75 -10 75 -5 0 -10 -16 -10 -35z" />
        <path d="M6750 2475 l0 -135 -75 0 -75 0 0 -40 0 -40 90 0 90 0 0 135 0 135
63 -1 62 0 105 -135 105 -134 98 0 98 0 -28 40 -28 40 -95 0 -95 1 -105 134
-105 135 -52 0 -53 0 0 -135z" />
        <path d="M3101 2551 c-19 -91 -69 -153 -151 -190 -40 -18 -65 -21 -242 -21
l-198 0 0 -40 0 -40 209 0 c157 0 219 4 250 15 101 35 162 122 160 229 0 34
-4 70 -8 81 -6 16 -11 9 -20 -34z" />
        <path d="M4760 2569 c0 -40 -44 -122 -85 -158 -74 -65 -195 -98 -295 -82 -71
12 -101 24 -157 63 l-46 31 19 -33 c24 -40 72 -83 127 -112 36 -20 57 -23 147
-23 92 0 112 3 161 26 113 53 168 147 149 251 -11 57 -20 74 -20 37z" />
        <path d="M1950 2375 l0 -35 -250 0 -250 0 -20 -40 -20 -40 285 0 285 0 0 75
c0 60 -3 75 -15 75 -10 0 -15 -11 -15 -35z" />
        <path d="M7980 2375 l0 -35 -265 0 -265 0 0 -40 0 -40 280 0 280 0 0 75 c0 60
-3 75 -15 75 -10 0 -15 -11 -15 -35z" />
        <path d="M3901 2300 l23 -40 98 0 98 0 -20 40 -20 40 -101 0 -100 0 22 -40z" />
    </g>
</svg>