<?xml version="1.0" standalone="no"?>
<!DOCTYPE svg PUBLIC "-//W3C//DTD SVG 20010904//EN"
 "http://www.w3.org/TR/2001/REC-SVG-20010904/DTD/svg10.dtd">
<svg version="1.0" xmlns="http://www.w3.org/2000/svg"
 width="158.000000pt" height="158.000000pt" viewBox="0 0 158.000000 158.000000"
 preserveAspectRatio="xMidYMid meet">
<metadata>
Created by potrace 1.14, written by Peter Selinger 2001-2017
</metadata>
<g transform="translate(0.000000,158.000000) scale(0.100000,-0.100000)"
fill="#000000" stroke="none">
<path d="M749 1486 c-2 -2 -29 -6 -59 -9 -187 -20 -381 -148 -488 -322 -117
-191 -133 -439 -41 -644 16 -35 29 -65 29 -67 0 -2 -12 1 -26 6 -37 14 -64 12
-64 -5 0 -9 21 -20 57 -30 32 -9 63 -18 70 -20 6 -2 16 2 21 8 14 17 35 124
27 137 -12 20 -24 9 -35 -30 -6 -22 -13 -40 -16 -40 -3 0 -15 24 -28 53 -65
146 -76 317 -31 461 81 256 303 436 570 462 57 6 85 17 73 29 -7 7 -54 16 -59
11z"/>
<path d="M708 1305 c-2 -2 -19 -7 -38 -10 -58 -9 -172 -71 -226 -122 -119
-113 -170 -237 -166 -405 2 -117 55 -238 142 -329 314 -328 870 -117 885 336
7 204 -102 388 -283 479 -40 20 -72 34 -72 32 0 -2 -19 2 -43 9 -38 11 -190
19 -199 10z m187 -46 c78 -14 165 -61 230 -124 193 -188 194 -491 1 -680 -149
-147 -356 -181 -543 -90 -108 53 -187 137 -232 244 -30 72 -35 94 -34 176 0
103 9 142 48 220 74 149 203 242 365 263 58 8 69 7 165 -9z"/>
<path d="M755 1098 c-60 -17 -98 -67 -97 -128 2 -104 104 -163 202 -117 34 16
71 91 65 133 -10 82 -91 135 -170 112z m85 -45 c72 -42 63 -147 -15 -173 -84
-28 -160 53 -121 129 30 57 85 75 136 44z"/>
<path d="M768 784 c-2 -1 -15 -5 -28 -7 -106 -20 -207 -138 -198 -230 l3 -32
230 -3 c127 -1 239 0 250 2 16 4 20 13 19 39 -5 97 -99 205 -194 222 -50 10
-79 13 -82 9z m120 -61 c18 -9 47 -33 66 -54 32 -37 59 -102 48 -113 -3 -3
-100 -6 -215 -6 l-209 0 6 32 c14 71 85 141 160 158 42 9 103 2 144 -17z"/>
<path d="M1245 1290 c-6 -10 -5 -116 2 -142 2 -10 11 -18 19 -18 10 0 14 12
14 40 0 52 17 51 52 -4 81 -127 117 -255 112 -398 -7 -236 -141 -444 -358
-558 -42 -22 -76 -38 -76 -35 0 3 -8 1 -18 -4 -24 -13 -61 -20 -137 -27 -78
-7 -86 -10 -78 -29 9 -24 125 -11 237 26 347 115 545 492 442 841 -27 90 -73
187 -109 225 -27 30 -20 34 25 19 44 -16 67 -6 43 18 -9 9 -19 16 -23 16 -4 0
-37 9 -74 19 -37 11 -70 16 -73 11z"/>
<path d="M263 264 c-24 -24 -43 -50 -43 -58 0 -18 98 -108 110 -101 16 10 12
22 -16 52 l-26 28 187 3 c170 2 186 4 183 20 -3 15 -21 17 -186 17 -100 0
-182 3 -182 6 0 3 11 16 25 29 14 13 25 29 25 37 0 26 -36 11 -77 -33z"/>
</g>
</svg>
