<?xml version="1.0" encoding="UTF-8" standalone="no" ?>
<!DOCTYPE svg PUBLIC "-//W3C//DTD SVG 1.1//EN" "http://www.w3.org/Graphics/SVG/1.1/DTD/svg11.dtd">
<svg xmlns="http://www.w3.org/2000/svg" xmlns:xlink="http://www.w3.org/1999/xlink" version="1.1" width="50" height="50" viewBox="0 0 50 50" xml:space="preserve">
<desc>Created with Fabric.js 5.2.4</desc>
<defs>
</defs>
<g transform="matrix(1 0 0 1 25 25)" id="76c4882b-a0e4-4305-b62c-46268eec9e26"  >
<rect style="stroke: none; stroke-width: 1; stroke-dasharray: none; stroke-linecap: butt; stroke-dashoffset: 0; stroke-linejoin: miter; stroke-miterlimit: 4; fill: rgb(255,255,255); fill-rule: nonzero; opacity: 1; visibility: hidden;" vector-effect="non-scaling-stroke"  x="-25" y="-25" rx="0" ry="0" width="50" height="50" />
</g>
<g transform="matrix(Infinity NaN NaN Infinity 0 0)" id="8d68919b-1950-4ff5-9871-7379065d9485"  >
</g>
<g transform="matrix(0.18 0 0 0.18 25 25)" id="7e4a8002-6087-4f88-968c-11ea350fcd68"  >
<path style="stroke: rgb(0,0,0); stroke-width: 0; stroke-dasharray: none; stroke-linecap: butt; stroke-dashoffset: 0; stroke-linejoin: miter; stroke-miterlimit: 4; fill: rgb(0,0,0); fill-rule: nonzero; opacity: 1;" vector-effect="non-scaling-stroke"  transform=" translate(-113.61, -113.61)" d="M 175.897 141.476 C 162.64801 141.476 150.787 147.52 142.917 156.994 L 142.917 156.994 L 91.72301 127.928 C 93.31501 123.448 94.19001 118.631004 94.19001 113.611 C 94.19001 108.592 93.31501 103.775 91.72301 99.295 L 91.72301 99.295 L 142.91301 70.222 C 150.78201 79.699 162.645 85.745 175.895 85.745 C 199.529 85.745 218.757 66.51 218.757 42.866 C 218.759 19.229 199.531 0 175.897 0 C 152.26 0 133.03 19.229 133.03 42.865 C 133.03 47.885002 133.90399 52.703003 135.497 57.184002 L 135.497 57.184002 L 84.304 86.258 C 76.435 76.786 64.575 70.744 51.329002 70.744 C 27.689003 70.744 8.456001 89.97301 8.456001 113.61 C 8.456001 137.246 27.689001 156.475 51.329002 156.475 C 64.575005 156.475 76.434006 150.43301 84.303 140.962 L 84.303 140.962 L 135.49701 170.029 C 133.904 174.51001 133.029 179.32901 133.029 184.35 C 133.029 207.98601 152.259 227.21501 175.89601 227.21501 C 199.53001 227.21501 218.75801 207.98502 218.75801 184.35 C 218.759 160.71 199.531 141.476 175.897 141.476 z M 175.897 15 C 191.26001 15 203.759 27.5 203.759 42.864998 C 203.759 58.238 191.26001 70.743996 175.897 70.743996 C 160.531 70.743996 148.03 58.237995 148.03 42.864998 C 148.03 27.5 160.531 15 175.897 15 z M 51.33 141.476 C 35.961002 141.476 23.457003 128.97499 23.457003 113.611 C 23.457003 98.245 35.961002 85.745 51.33 85.745 C 66.693 85.745 79.191 98.245 79.191 113.611 C 79.191 128.975 66.692 141.476 51.33 141.476 z M 175.897 212.216 C 160.531 212.216 148.03 199.715 148.03 184.351 C 148.03 168.981 160.531 156.476 175.897 156.476 C 191.26001 156.476 203.759 168.981 203.759 184.351 C 203.759 199.715 191.26 212.216 175.897 212.216 z" stroke-linecap="round" />
</g>
</svg>